<svg aria-hidden="true" style="position:absolute;width:0;height:0;overflow:hidden" xmlns="http://www.w3.org/2000/svg"><defs>
<symbol id="icon-arrow" viewBox="0 0 32 32"><path d="m19.414 27.414 10-10a2 2 0 0 0 0-2.828l-10-10a2 2 0 1 0-2.828 2.828L23.172 14H4a2 2 0 1 0 0 4h19.172l-6.586 6.586c-.39.39-.586.902-.586 1.414s.195 1.024.586 1.414a2 2 0 0 0 2.828 0z"/></symbol>
<symbol id="icon-facebook" viewBox="0 0 16 32"><path d="M14.143 15.971h-4.033v14.865h-6.112v-14.865h-2.906v-5.222h2.906v-3.382c0-2.417 1.142-6.204 6.167-6.204l4.527 0.019v5.072h-3.284c-0.538 0-1.297 0.272-1.297 1.425v3.073h4.567l-0.534 5.219z"></path>
</symbol>
<symbol id="icon-telegram" viewBox="0 0 40 32">
<path d="M15.734 20.75l-0.634 8.34c0.908 0 1.3-0.366 1.774-0.802l4.26-3.8 8.83 6.034c1.62 0.84 2.76 0.398 3.196-1.39l5.796-25.346c0.516-2.236-0.864-3.108-2.44-2.56l-34.068 12.172c-2.326 0.84-2.29 2.052-0.396 2.6l8.71 2.528 20.228-11.814c0.952-0.588 1.82-0.264 1.106 0.326l-16.364 13.712z"></path>
</symbol>
<symbol id="icon-github" viewBox="0 0 32 32"><path d="M16 .396c-8.84 0-16 7.164-16 16 0 7.071 4.584 13.067 10.94 15.18.8.151 1.093-.344 1.093-.769 0-.38-.013-1.387-.02-2.72-4.451.965-5.389-2.147-5.389-2.147-.728-1.847-1.78-2.34-1.78-2.34-1.449-.992.112-.972.112-.972 1.607.112 2.451 1.648 2.451 1.648 1.427 2.447 3.745 1.74 4.66 1.331.144-1.035.556-1.74 1.013-2.14-3.553-.4-7.288-1.776-7.288-7.907 0-1.747.62-3.173 1.647-4.293-.18-.404-.72-2.031.14-4.235 0 0 1.34-.429 4.4 1.64 1.28-.356 2.64-.532 4-.54 1.36.008 2.72.184 4 .54 3.04-2.069 4.38-1.64 4.38-1.64.86 2.204.32 3.831.16 4.235 1.02 1.12 1.64 2.547 1.64 4.293 0 6.147-3.74 7.5-7.3 7.893.56.48 1.08 1.461 1.08 2.96 0 2.141-.02 3.861-.02 4.381 0 .42.28.92 1.1.76C27.42 29.455 32 23.455 32 16.395c0-8.836-7.164-16-16-16z"/></symbol>
<symbol id="icon-home" viewBox="0 0 20 20"><path d="M18.672 11H17v6c0 .445-.194 1-1 1h-4v-6H8v6H4c-.806 0-1-.555-1-1v-6H1.328c-.598 0-.47-.324-.06-.748L9.292 2.22c.195-.202.451-.302.708-.312.257.01.513.109.708.312l8.023 8.031c.411.425.539.749-.059.749z"/></symbol>
<symbol id="icon-close" viewBox="0 0 32 32">
<path fill="none" stroke="#fff" style="stroke: var(--color1, #fff)" stroke-linejoin="miter" stroke-linecap="butt" stroke-miterlimit="4" stroke-width="2" d="M2.52 2l26.96 28M2 29.48l28-26.96"></path>
</symbol>
<symbol id="icon-burger" viewBox="0 0 46 32">
<path fill="none" stroke="#d41443" style="stroke: var(--color2, #d41443)" stroke-linejoin="miter" stroke-linecap="butt" stroke-miterlimit="4" stroke-width="2.2857" d="M0 2.286h45.714M0 16h45.714M0 29.714h45.714"></path>
</symbol>
<symbol id="icon-cross" viewBox="0 0 32 32">
<path d="M31.708 25.708c-0-0-0-0-0-0l-9.708-9.708 9.708-9.708c0-0 0-0 0-0 0.105-0.105 0.18-0.227 0.229-0.357 0.133-0.356 0.057-0.771-0.229-1.057l-4.586-4.586c-0.286-0.286-0.702-0.361-1.057-0.229-0.13 0.048-0.252 0.124-0.357 0.228 0 0-0 0-0 0l-9.708 9.708-9.708-9.708c-0-0-0-0-0-0-0.105-0.104-0.227-0.18-0.357-0.228-0.356-0.133-0.771-0.057-1.057 0.229l-4.586 4.586c-0.286 0.286-0.361 0.702-0.229 1.057 0.049 0.13 0.124 0.252 0.229 0.357 0 0 0 0 0 0l9.708 9.708-9.708 9.708c-0 0-0 0-0 0-0.104 0.105-0.18 0.227-0.229 0.357-0.133 0.355-0.057 0.771 0.229 1.057l4.586 4.586c0.286 0.286 0.702 0.361 1.057 0.229 0.13-0.049 0.252-0.124 0.357-0.229 0-0 0-0 0-0l9.708-9.708 9.708 9.708c0 0 0 0 0 0 0.105 0.105 0.227 0.18 0.357 0.229 0.356 0.133 0.771 0.057 1.057-0.229l4.586-4.586c0.286-0.286 0.362-0.702 0.229-1.057-0.049-0.13-0.124-0.252-0.229-0.357z"></path>
</symbol>
<symbol id="icon-apple" viewBox="0 0 31 32">
<path fill="#FFA5BA"  d="M16.072 2.174c-0.557 0.85-1.013 1.838-1.013 2.196 0 0.953-2.082 0.791-3.488-0.272-1.472-1.113-4.146-1.234-5.148-0.232-0.555 0.555-0.887 0.316-1.384-0.992-0.822-2.162-2.259-1.759-2.084 0.584 0.082 1.094-0.449 2.444-1.412 3.588-2.034 2.417-2.015 5.512 0.1 16.454l1.643 8.499 9.808-0.028c14.082-0.039 16.39-0.679 17.433-4.835 0.633-2.52-0.317-4.575-2.546-5.506-1.759-0.735-2.043-1.129-1.785-2.477 0.396-2.072-1.016-1.633-2.514 0.782-0.962 1.552-1.062 1.587-1.077 0.384-0.009-0.729 0.277-2.847 0.636-4.706 0.476-2.46 0.451-4.147-0.088-6.203-0.861-3.282-1.99-4.392-4.466-4.392-1.757 0-1.767-0.022-0.846-1.803 1.446-2.795-0.045-3.674-1.769-1.043zM10.906 6.992c1.021 2.903 0.213 3.676-3.827 3.666-4.346-0.012-6.026-0.757-4.067-1.806 0.714-0.382 1.837-0.695 2.494-0.695 0.675 0 1.515-0.702 1.93-1.613 0.922-2.024 2.681-1.797 3.47 0.448zM17.375 7.589c1.348-0.614 1.822-0.583 2.577 0.173 1.736 1.736 0.448 2.994-2.848 2.783-2.788-0.179-3-0.314-3.197-2.038-0.186-1.638-0.095-1.751 0.803-1.006 0.808 0.671 1.346 0.689 2.665 0.088zM21.125 13.539c0.209 0.545-0.173 1.745-0.848 2.667-2.701 3.686-8.961 4.985-13.362 2.773-1.981-0.994-5.032-4.57-5.032-5.896 0-0.294 4.244-0.535 9.431-0.535 8.013 0 9.489 0.149 9.811 0.99zM5.799 21.098c2.295 1.186 8.662 1.343 11.386 0.28 2.335-0.912 2.699-0.486 1.349 1.574-0.821 1.252-0.986 2.334-0.674 4.412l0.413 2.753h-6.627c-3.644 0-6.627-0.089-6.627-0.198 0-0.531-1.365-7.782-1.646-8.743-0.397-1.357-0.068-1.367 2.425-0.078zM22.939 24.117c1.060 0.784 1.403 0.781 2.647-0.026 1.812-1.175 2.649-0.661 2.649 1.628 0 2.388-1.496 3.772-4.078 3.772-2.559 0-4.078-1.381-4.078-3.705 0-2.688 0.829-3.171 2.861-1.668z"></path>
</symbol>
<symbol id="icon-cow" viewBox="0 0 28 32">
<path fill="#FFA5BA"  d="M6.259 0.066c-0.573 0.076-1.469 0.429-2.192 0.864-1.549 0.931-2.335 1.825-3.279 3.729-0.538 1.085-0.618 1.32-0.707 2.071-0.056 0.466-0.081 1.419-0.057 2.118 0.051 1.481 0.227 2.117 1.053 3.812 1.262 2.586 3.591 5.157 7.173 7.918 2.037 1.57 2.472 1.974 2.727 2.531 0.213 0.466 0.223 0.597 0.305 4.099 0.047 2.013 0.127 3.724 0.18 3.858 0.053 0.133 0.243 0.371 0.424 0.529 0.3 0.264 0.405 0.294 1.234 0.356 0.499 0.037 1.353 0.037 1.899 0 0.866-0.059 1.029-0.098 1.272-0.302 0.567-0.477 0.568-0.484 0.654-4.414 0.102-4.648-0.031-4.311 2.442-6.199 4.886-3.731 7.281-6.59 8.483-10.125 0.25-0.737 0.308-1.068 0.343-1.968 0.023-0.595-0.003-1.527-0.058-2.069-0.096-0.954-0.123-1.033-0.78-2.353-0.64-1.285-0.734-1.42-1.581-2.27-1.543-1.549-2.83-2.151-4.759-2.226-0.643-0.025-1.372 0.002-1.694 0.062-0.868 0.163-2.306 0.928-3.478 1.852-1.095 0.863-1.308 0.981-1.761 0.981-0.424 0-0.771-0.198-1.911-1.090-1.172-0.918-2.47-1.599-3.307-1.736-0.536-0.088-2.048-0.103-2.625-0.026zM8.706 2.083c0.854 0.223 1.573 0.673 2.965 1.855 1.148 0.975 1.503 1.143 2.427 1.144 0.976 0.001 1.201-0.107 2.49-1.19 1.749-1.47 2.692-1.925 4.015-1.939 2.156-0.022 3.9 1.125 4.975 3.271 0.493 0.983 0.586 1.455 0.586 2.947 0 1.53-0.106 1.859-0.673 2.094-0.431 0.178-0.687-0.006-1.321-0.949-0.851-1.267-1.413-1.632-2.524-1.638-0.587-0.003-0.787 0.039-1.185 0.247-0.942 0.493-1.356 1.161-1.682 2.709-0.267 1.271-0.452 1.601-0.893 1.601-0.574 0-0.729-0.278-1.031-1.853-0.203-1.057-0.268-1.218-0.716-1.773-0.604-0.748-1.759-1.141-2.648-0.901-0.566 0.153-1.244 0.647-1.596 1.163-0.293 0.429-0.341 0.59-0.717 2.402-0.127 0.61-0.426 0.962-0.82 0.962-0.431 0-0.628-0.27-0.8-1.098-0.326-1.573-0.431-1.871-0.841-2.392-0.244-0.31-0.601-0.621-0.911-0.792-0.444-0.245-0.603-0.282-1.217-0.277-1.108 0.008-1.693 0.383-2.492 1.595-0.289 0.44-0.629 0.867-0.755 0.949-0.341 0.224-0.755 0.096-1.038-0.32-0.224-0.33-0.233-0.402-0.23-1.804 0.003-1.416 0.012-1.485 0.308-2.261 1.097-2.878 3.719-4.433 6.324-3.753zM6.934 10.231c0.326 0.214 0.463 0.571 0.64 1.676 0.233 1.451 0.593 2.073 1.497 2.591 0.425 0.244 0.571 0.276 1.262 0.277 0.818 0.001 1.089-0.086 1.684-0.538 0.624-0.475 0.878-1.040 1.295-2.891 0.165-0.734 0.427-1.088 0.805-1.088 0.441 0 0.637 0.338 0.905 1.559 0.354 1.613 0.679 2.165 1.579 2.681 0.429 0.246 0.568 0.276 1.281 0.276s0.852-0.030 1.282-0.277c0.515-0.295 0.991-0.825 1.203-1.337 0.071-0.173 0.204-0.768 0.294-1.323 0.176-1.079 0.371-1.518 0.752-1.692 0.474-0.216 0.788 0.062 1.677 1.483 0.955 1.528 1.055 1.884 0.708 2.536-0.707 1.327-3.756 4.115-6.777 6.197-1.385 0.955-2.041 1.232-2.916 1.233-0.667 0.001-0.779-0.030-1.6-0.441-1.053-0.527-3.591-2.403-5.257-3.885-1.295-1.152-2.546-2.528-2.828-3.112-0.352-0.727-0.228-1.099 0.969-2.919 0.757-1.15 1.043-1.338 1.544-1.009zM14.415 24.4c0.428 0.347 0.455 0.494 0.455 2.496 0 1.527-0.029 1.969-0.143 2.189-0.255 0.494-0.919 0.506-1.201 0.022-0.157-0.27-0.177-0.514-0.177-2.178 0-1.525 0.028-1.928 0.149-2.162 0.234-0.453 0.62-0.608 0.917-0.368z"></path>
</symbol>
<symbol id="icon-milk" viewBox="0 0 21 32">
<path fill="#FFA5BA"  d="M1.988 1.76c0.090 0.968-0.068 2.462-0.353 3.32-0.681 2.054 1.663 4.215 3.503 3.23 1.713-0.916 1.901-0.826 2.63 1.263 1.151 3.302 4.44 3.288 5.595-0.025 0.719-2.063 0.91-2.154 2.621-1.238 1.84 0.985 4.184-1.176 3.503-3.23-0.285-0.858-0.444-2.352-0.353-3.32l0.164-1.76h-17.473l0.164 1.76zM16.378 2.961c-0.22 0.572-0.066 1.443 0.342 1.935 0.969 1.167 0.216 1.906-0.953 0.936-1.172-0.973-4.243 0.318-4.257 1.791-0.006 0.559-0.285 1.449-0.621 1.977-0.482 0.756-0.697 0.535-1.016-1.047-0.483-2.393-3.053-3.939-4.521-2.721-1.169 0.97-1.922 0.232-0.953-0.936 0.408-0.492 0.563-1.363 0.342-1.935-0.352-0.918 0.339-1.041 5.818-1.041s6.17 0.124 5.818 1.041zM0.329 13.425c-0.212 0.344 0.378 4.664 1.313 9.6l1.699 8.975h14.437l1.699-8.975c0.935-4.936 1.526-9.256 1.313-9.6-0.513-0.83-19.949-0.83-20.462 0v0zM18.56 15.712c0 1.2-2.080 3.997-3.562 4.79-2.247 1.203-6.628 1.203-8.876 0-1.482-0.793-3.562-3.59-3.562-4.79 0-0.194 3.6-0.352 8-0.352s8 0.158 8 0.352zM10.56 23.68c1.254 0 3.313-0.431 4.573-0.957l2.292-0.957-0.429 3.037c-0.781 5.531-0.471 5.277-6.436 5.277s-5.655 0.253-6.436-5.277l-0.429-3.037 2.292 0.957c1.26 0.527 3.318 0.957 4.573 0.957z"></path>
</symbol>
</defs></svg>